<svg width="32" height="32" viewBox="0 0 32 32" fill="none" xmlns="http://www.w3.org/2000/svg">
<path fill-rule="evenodd" clip-rule="evenodd" d="M16.6955 8.22302H14.7797V0H16.6955V8.22302ZM20.9151 8.22301H18.9987V4.33017H20.9151V8.22301ZM26.7755 13.0215H3.91837V11.0582H26.7755V13.0215ZM0 16.9481H32V14.9848H0V16.9481ZM3.91837 20.8746H26.7755V18.9113H3.91837V20.8746ZM12.4767 25.6872V23.7433H12.4677V23.7388C12.2369 23.7403 12.0178 23.7412 11.8064 23.742L11.5128 23.7433H10.5603V23.7477H10.5543C10.5543 24.4189 10.5573 25.0622 10.5603 25.6947V27.6364H10.5691V27.6408C10.8996 27.6394 11.2145 27.638 11.5224 27.6364H12.4767V27.6325H12.4854C12.4828 26.9876 12.4799 26.3654 12.477 25.7419L12.4767 25.6872ZM20.9151 27.6364H18.9987V23.7433H20.9151V27.6364ZM14.7797 32H16.6955V23.7433H14.7797V32ZM10.5605 8.22301H12.4768V4.33017H10.5605V8.22301Z" fill="#771284"/>
</svg>
