<svg width="32" height="32" viewBox="0 0 32 32" fill="none" xmlns="http://www.w3.org/2000/svg">
<path fill-rule="evenodd" clip-rule="evenodd" d="M16.4378 8.22302H14.5516V0H16.4378V8.22302ZM20.5922 8.22302H18.7054V4.33017H20.5922V8.22302ZM26.3622 13.0215H3.85788V11.0582H26.3622V13.0215ZM0 16.9481H31.506V14.9848H0V16.9481ZM3.85788 20.8747H26.3622V18.9114H3.85788V20.8747ZM12.2841 25.6872V23.7433H12.2752V23.7388C12.048 23.7403 11.8323 23.7412 11.6242 23.742L11.3351 23.7433H10.3973V23.7477H10.3914C10.3914 24.4189 10.3944 25.0622 10.3973 25.6947V27.6364H10.4059V27.6408C10.7314 27.6394 11.0414 27.638 11.3445 27.6364H12.2841V27.6325H12.2927C12.2901 26.9877 12.2872 26.3655 12.2844 25.742L12.2841 25.6872ZM20.5922 27.6364H18.7054V23.7433H20.5922V27.6364ZM14.5516 32H16.4378V23.7433H14.5516V32ZM10.3974 8.22302H12.2842V4.33017H10.3974V8.22302Z" fill="white"/>
</svg>
